<svg version="1.2" xmlns="http://www.w3.org/2000/svg" viewBox="0 0 351 343" width="351" height="343">
	<title>n0re_zx12_230207</title>
	<style>
		.s0 { fill: #9aca3c } 
		.s1 { fill: #54771f } 
		.s2 { fill: #5f8424 } 
		.s3 { fill: #ffffff } 
		.s4 { fill: #231f20 } 
		.s5 { fill: #393435 } 
		.s6 { fill: #1f1f1f } 
		.s7 { fill: #56c8e2 } 
		.s8 { fill: #494848 } 
		.s9 { fill: #605e5e } 
		.s10 { fill: #000000 } 
		.s11 { fill: #373836 } 
		.s12 { fill: #51514e } 
		.s13 { opacity: .45;fill: #262725 } 
		.s14 { fill: #6e6d69 } 
		.s15 { mix-blend-mode: screen;fill: #9aca3c } 
		.s16 { fill: #171314 } 
		.s17 { fill: #a3a5a8 } 
		.s18 { fill: #ebebec } 
		.s19 { fill: #404241 } 
		.s20 { mix-blend-mode: screen;fill: #404241 } 
		.s21 { fill: #4c4d4a } 
		.s22 { mix-blend-mode: multiply;fill: #4c4d4a } 
	</style>
	<g id="Layer 1">
		<g id="&lt;Group&gt;">
			<g id="&lt;Group&gt;">
				<g id="&lt;Group&gt;">
					<g id="&lt;Group&gt;">
						<g id="&lt;Group&gt;">
							<path id="&lt;Path&gt;" class="s0" d="m244.8 332v-306.2c0.4-14.3-11.1-25.8-25.2-25.8h-46.4c-14.1 0-25.6 11.5-25.6 25.6v306.2z"/>
							<path id="&lt;Path&gt;" class="s1" d="m245.2 320.8v11h-97.6v-11z"/>
							<path id="&lt;Path&gt;" class="s2" d="m153 24.5l15.9 199.2c0 0 1.4 37.3 23.8 39.4h7.3c22.5-2.1 23.9-39.4 23.9-39.4l15.9-199.2z"/>
							<path id="&lt;Path&gt;" class="s3" d="m154.7 26.2l15.3 194.2c0 0 1.3 36.4 22.9 38.4h7c21.6-2 22.9-38.4 22.9-38.4l15.3-194.2z"/>
							<path id="&lt;Path&gt;" class="s4" d="m197.9 194.9h-3c-9.5 0-17.3-7.8-17.3-17.3v-33.8c0-9.5 7.8-17.3 17.3-17.3h3c9.5 0 17.3 7.8 17.3 17.3v33.8c0 9.5-7.8 17.3-17.3 17.3z"/>
							<path id="&lt;Path&gt;" class="s5" d="m197.8 194.2h-2.8c-9.1 0-16.5-7.4-16.5-16.5v-32.1c0-9.1 7.4-16.5 16.5-16.5h2.8c9.1 0 16.5 7.4 16.5 16.5v32.1c0 9.1-7.4 16.5-16.5 16.5z"/>
							<g id="&lt;Group&gt;">
								<g id="&lt;Group&gt;">
									<g id="&lt;Group&gt;">
										<g id="&lt;Group&gt;">
											<path id="&lt;Path&gt;" class="s6" d="m196.4 176.5c-6.5 0-11.8-5.3-11.8-11.8 0-6.5 5.3-11.8 11.8-11.8 6.5 0 11.8 5.3 11.8 11.8 0 6.5-5.3 11.8-11.8 11.8z"/>
											<path id="&lt;Path&gt;" class="s7" d="m196.4 174.9c-5.6 0-10.2-4.6-10.2-10.2 0-5.6 4.6-10.1 10.2-10.1 5.6 0 10.1 4.5 10.1 10.1 0 5.6-4.5 10.2-10.1 10.2z"/>
											<path id="&lt;Path&gt;" class="s8" d="m196.4 173.7c-4.9 0-8.8-4-8.8-8.9 0-4.8 3.9-8.8 8.8-8.8 4.9 0 8.8 4 8.8 8.8 0 4.9-3.9 8.9-8.8 8.9z"/>
											<path id="&lt;Path&gt;" class="s9" d="m196.4 172.8c-4.4 0-7.9-3.6-7.9-8 0-4.3 3.5-7.9 7.9-7.9 4.4 0 7.9 3.6 7.9 7.9 0 4.4-3.5 8-7.9 8z"/>
										</g>
										<path id="&lt;Path&gt;" class="s10" d="m193.8 161c0.3 0.4 0.3 0.9-0.1 1.2l-1.6 1.3c-0.3 0.3-0.9 0.2-1.2-0.2-0.3-0.4-0.3-0.9 0.1-1.2l1.6-1.3c0.4-0.3 0.9-0.2 1.2 0.2z"/>
										<path id="&lt;Path&gt;" class="s10" d="m201.7 163.4c-0.3 0.3-0.9 0.4-1.2 0l-1.5-1.3c-0.3-0.4-0.4-0.9 0-1.3 0.3-0.3 0.9-0.4 1.2 0l1.5 1.3c0.3 0.3 0.4 0.9 0 1.3z"/>
										<path id="&lt;Path&gt;" class="s10" d="m194.4 169.1c0-0.5 0.4-0.9 0.9-0.9l2 0.1c0.5 0 0.9 0.4 0.8 0.9 0 0.5-0.4 0.9-0.9 0.8h-1.9c-0.5 0-0.9-0.4-0.9-0.9z"/>
										<path id="&lt;Path&gt;" class="s3" d="m196.9 136.2h4l-3.3 6.4h1.8l-4.7 8.1 2.3-7.1h-2.6z"/>
									</g>
								</g>
								<g id="&lt;Group&gt;">
									<path id="&lt;Path&gt;" class="s11" d="m196.4 157.5c-5.4 0-9.7 4.3-9.7 9.7q0 0.1 0 0.2v10.5h19.4v-10.7c0-5.4-4.3-9.7-9.7-9.7z"/>
									<path id="&lt;Path&gt;" class="s12" d="m196.4 158.2c-5.4 0-9.7 4.2-9.7 9.4q0 0.1 0 0.2v10.1h19.4v-10.3c0-5.2-4.3-9.4-9.7-9.4z"/>
									<path id="&lt;Path&gt;" class="s13" d="m188.4 177.9v-16.3c-1.1 1.6-1.7 3.5-1.7 5.6q0 0.1 0 0.2v10.5z"/>
									<path id="&lt;Path&gt;" class="s13" d="m201.1 158.7v19.2h5v-10.7c0-3.6-2-6.8-5-8.5z"/>
									<path id="&lt;Path&gt;" class="s12" d="m196.4 187.6c-5.4 0-9.7-4.3-9.7-9.7 0-5.3 4.3-9.7 9.7-9.7 5.4 0 9.7 4.4 9.7 9.7 0 5.4-4.3 9.7-9.7 9.7z"/>
									<path id="&lt;Path&gt;" class="s14" d="m196.4 187.6c-5.4 0-9.7-4.3-9.7-9.7 0-5.3 4.3-9.7 9.7-9.7 5.4 0 9.7 4.4 9.7 9.7 0 5.4-4.3 9.7-9.7 9.7z"/>
									<path id="&lt;Path&gt;" class="s7" d="m196.4 186.5c-4.5 0-8.1-3.6-8.1-8.1 0-4.5 3.6-8.1 8.1-8.1 4.5 0 8.1 3.6 8.1 8.1 0 4.5-3.6 8.1-8.1 8.1z"/>
									<path id="&lt;Path&gt;" class="s10" d="m196.4 185.4c-3.9 0-7-3.1-7-7 0-3.9 3.1-7 7-7 3.9 0 7 3.1 7 7 0 3.9-3.1 7-7 7z"/>
								</g>
							</g>
							<path id="&lt;Path&gt;" class="s15" d="m153 314.7v-290.2c0 0 4.7-19.5 22.9-21.7 12.6-1.6 25.4-1.7 25.4-1.7h-24.8c0 0-23.1 2.2-26.1 23.6v290z"/>
						</g>
						<g id="&lt;Group&gt;">
							<path id="&lt;Path&gt;" class="s16" d="m219.8 66.2h-46.8c-4.2 0-7.6-3.4-7.6-7.6v-5.9c0-4.2 3.4-7.6 7.6-7.6h46.8c4.1 0 7.6 3.4 7.6 7.6v5.9c0 4.2-3.5 7.6-7.6 7.6z"/>
							<path id="&lt;Path&gt;" class="s5" d="m218.2 65h-43.6c-3.8 0-6.9-3-6.9-6.8v-4.7c0-3.7 3.1-6.8 6.9-6.8h43.6c3.8 0 6.8 3.1 6.8 6.8v4.7c0 3.8-3 6.8-6.8 6.8z"/>
							<g id="&lt;Group&gt;">
								<g id="&lt;Group&gt;">
									<path id="&lt;Path&gt;" class="s17" d="m206.8 73c-1.3 0-2.3-1-2.3-2.3 0-1.2 1-2.3 2.3-2.3 1.2 0 2.3 1.1 2.3 2.3 0 1.3-1.1 2.3-2.3 2.3z"/>
									<path id="&lt;Path&gt;" class="s18" d="m206.9 72.3h-0.2c-0.8 0-1.5-0.6-1.5-1.5v-0.1c0-0.9 0.7-1.6 1.5-1.6h0.2c0.8 0 1.5 0.7 1.5 1.6v0.1c0 0.9-0.7 1.5-1.5 1.5z"/>
								</g>
								<g id="&lt;Group&gt;">
									<path id="&lt;Path&gt;" class="s17" d="m200 73c-1.2 0-2.3-1-2.3-2.3 0-1.2 1.1-2.3 2.3-2.3 1.3 0 2.3 1.1 2.3 2.3 0 1.3-1 2.3-2.3 2.3z"/>
									<path id="&lt;Path&gt;" class="s18" d="m200.1 72.3h-0.1c-0.9 0-1.6-0.6-1.6-1.5v-0.1c0-0.9 0.7-1.6 1.6-1.6h0.1c0.9 0 1.5 0.7 1.5 1.6v0.1c0 0.9-0.6 1.5-1.5 1.5z"/>
								</g>
								<g id="&lt;Group&gt;">
									<path id="&lt;Path&gt;" class="s17" d="m193.3 73c-1.3 0-2.3-1-2.3-2.3 0-1.2 1-2.3 2.3-2.3 1.3 0 2.3 1.1 2.3 2.3 0 1.3-1 2.3-2.3 2.3z"/>
									<path id="&lt;Path&gt;" class="s18" d="m193.4 72.3h-0.2c-0.8 0-1.5-0.6-1.5-1.5v-0.1c0-0.9 0.7-1.6 1.5-1.6h0.2c0.8 0 1.5 0.7 1.5 1.6v0.1c0 0.9-0.7 1.5-1.5 1.5z"/>
								</g>
								<g id="&lt;Group&gt;">
									<path id="&lt;Path&gt;" class="s17" d="m186.6 73c-1.3 0-2.3-1-2.3-2.3 0-1.2 1-2.3 2.3-2.3 1.2 0 2.2 1.1 2.2 2.3 0 1.3-1 2.3-2.2 2.3z"/>
									<path id="&lt;Path&gt;" class="s18" d="m186.6 72.3h-0.1c-0.9 0-1.6-0.6-1.6-1.5v-0.1c0-0.9 0.7-1.6 1.6-1.6h0.1c0.9 0 1.6 0.7 1.6 1.6v0.1c0 0.9-0.7 1.5-1.6 1.5z"/>
								</g>
								<g id="&lt;Group&gt;">
									<path id="&lt;Path&gt;" class="s17" d="m206.8 78.8c-1.3 0-2.3-1-2.3-2.3 0-1.3 1-2.3 2.3-2.3 1.2 0 2.3 1 2.3 2.3 0 1.3-1.1 2.3-2.3 2.3z"/>
									<path id="&lt;Path&gt;" class="s18" d="m206.9 78.1h-0.2c-0.8 0-1.5-0.7-1.5-1.5v-0.2c0-0.8 0.7-1.5 1.5-1.5h0.2c0.8 0 1.5 0.7 1.5 1.5v0.2c0 0.8-0.7 1.5-1.5 1.5z"/>
								</g>
								<g id="&lt;Group&gt;">
									<path id="&lt;Path&gt;" class="s17" d="m200 78.8c-1.2 0-2.3-1-2.3-2.3 0-1.3 1.1-2.3 2.3-2.3 1.3 0 2.3 1 2.3 2.3 0 1.3-1 2.3-2.3 2.3z"/>
									<path id="&lt;Path&gt;" class="s18" d="m200.1 78.1h-0.1c-0.9 0-1.6-0.7-1.6-1.5v-0.2c0-0.8 0.7-1.5 1.6-1.5h0.1c0.9 0 1.5 0.7 1.5 1.5v0.2c0 0.8-0.6 1.5-1.5 1.5z"/>
								</g>
								<g id="&lt;Group&gt;">
									<path id="&lt;Path&gt;" class="s17" d="m193.3 78.8c-1.3 0-2.3-1-2.3-2.3 0-1.3 1-2.3 2.3-2.3 1.3 0 2.3 1 2.3 2.3 0 1.3-1 2.3-2.3 2.3z"/>
									<path id="&lt;Path&gt;" class="s18" d="m193.4 78.1h-0.2c-0.8 0-1.5-0.7-1.5-1.5v-0.2c0-0.8 0.7-1.5 1.5-1.5h0.2c0.8 0 1.5 0.7 1.5 1.5v0.2c0 0.8-0.7 1.5-1.5 1.5z"/>
								</g>
								<g id="&lt;Group&gt;">
									<path id="&lt;Path&gt;" class="s17" d="m186.6 78.8c-1.3 0-2.3-1-2.3-2.3 0-1.3 1-2.3 2.3-2.3 1.2 0 2.2 1 2.2 2.3 0 1.3-1 2.3-2.2 2.3z"/>
									<path id="&lt;Path&gt;" class="s18" d="m186.6 78.1h-0.1c-0.9 0-1.6-0.7-1.6-1.5v-0.2c0-0.8 0.7-1.5 1.6-1.5h0.1c0.9 0 1.6 0.7 1.6 1.5v0.2c0 0.8-0.7 1.5-1.6 1.5z"/>
								</g>
								<g id="&lt;Group&gt;">
									<path id="&lt;Path&gt;" class="s17" d="m206.8 84.6c-1.3 0-2.3-1-2.3-2.3 0-1.3 1-2.3 2.3-2.3 1.2 0 2.3 1 2.3 2.3 0 1.3-1.1 2.3-2.3 2.3z"/>
									<path id="&lt;Path&gt;" class="s18" d="m206.9 83.9h-0.2c-0.8 0-1.5-0.7-1.5-1.5v-0.2c0-0.8 0.7-1.5 1.5-1.5h0.2c0.8 0 1.5 0.7 1.5 1.5v0.2c0 0.8-0.7 1.5-1.5 1.5z"/>
								</g>
								<g id="&lt;Group&gt;">
									<path id="&lt;Path&gt;" class="s17" d="m200 84.6c-1.2 0-2.3-1-2.3-2.3 0-1.3 1.1-2.3 2.3-2.3 1.3 0 2.3 1 2.3 2.3 0 1.3-1 2.3-2.3 2.3z"/>
									<path id="&lt;Path&gt;" class="s18" d="m200.1 83.9h-0.1c-0.9 0-1.6-0.7-1.6-1.5v-0.2c0-0.8 0.7-1.5 1.6-1.5h0.1c0.9 0 1.5 0.7 1.5 1.5v0.2c0 0.8-0.6 1.5-1.5 1.5z"/>
								</g>
								<g id="&lt;Group&gt;">
									<path id="&lt;Path&gt;" class="s17" d="m193.3 84.6c-1.3 0-2.3-1-2.3-2.3 0-1.3 1-2.3 2.3-2.3 1.3 0 2.3 1 2.3 2.3 0 1.3-1 2.3-2.3 2.3z"/>
									<path id="&lt;Path&gt;" class="s18" d="m193.4 83.9h-0.2c-0.8 0-1.5-0.7-1.5-1.5v-0.2c0-0.8 0.7-1.5 1.5-1.5h0.2c0.8 0 1.5 0.7 1.5 1.5v0.2c0 0.8-0.7 1.5-1.5 1.5z"/>
								</g>
								<g id="&lt;Group&gt;">
									<path id="&lt;Path&gt;" class="s17" d="m186.6 84.6c-1.3 0-2.3-1-2.3-2.3 0-1.3 1-2.3 2.3-2.3 1.2 0 2.2 1 2.2 2.3 0 1.3-1 2.3-2.2 2.3z"/>
									<path id="&lt;Path&gt;" class="s18" d="m186.6 83.9h-0.1c-0.9 0-1.6-0.7-1.6-1.5v-0.2c0-0.8 0.7-1.5 1.6-1.5h0.1c0.9 0 1.6 0.7 1.6 1.5v0.2c0 0.8-0.7 1.5-1.6 1.5z"/>
								</g>
							</g>
						</g>
					</g>
					<g id="&lt;Group&gt;">
						<path id="&lt;Path&gt;" class="s19" d="m251.3 343h-109.8c-0.6 0-1.1-0.5-1.1-1v-13.4c0-0.5 0.5-1 1.1-1h109.8c0.6 0 1 0.5 1 1v13.4c0 0.5-0.4 1-1 1z"/>
						<path id="&lt;Path&gt;" class="s20" d="m252.3 332.1v-3.5c0-0.5-0.4-1-1-1h-109.8c-0.6 0-1.1 0.5-1.1 1v3.5z"/>
					</g>
				</g>
				<path id="&lt;Path&gt;" class="s21" d="m199.7 248.1c-4-28.5-0.2-70.4-0.1-70.8 0.1-1.9-1.2-3.5-3.1-3.7-1.8-0.1-3.5 1.2-3.6 3.1-0.2 1.7-4 43.1 0.2 72.4 2.7 19.2 3.1 34.5 1.3 46.8-2.4 16.4-9.1 26.8-19.7 30.8-11.5 4.4-24.1 2.2-32.9-5.6-5.8-5.1-9.9-12.5-11.8-21.3-2.3-10.4-1.7-22.7 1.8-36.5 4.6-18.5 8.7-33.6 12.4-46.9 1.2-4.2 2.4-8.7 3.4-12.5v-28.5c-2.1 10.7-5.6 23.7-9.9 39.2-3.7 13.3-7.8 28.5-12.5 47.1-3.6 14.8-4.2 28.1-1.8 39.5 2.3 10.3 7.1 18.9 13.9 24.9 7.1 6.3 16.1 9.6 25.4 9.6 4.8 0 9.7-0.9 14.4-2.7 13.1-5 21.1-17.1 24-36.1 1.9-12.9 1.5-28.9-1.4-48.8z"/>
				<path id="&lt;Path&gt;" class="s22" d="m147.6 203.9v-28.5c-1.1 5.5-2.5 11.7-4.3 18.4q0.1 0 0.1 0c0.2-0.1 0.3-0.1 0.4 0.1q0.4 0.4 0.6 1c0.7 1.7 0.7 3.7 0.5 5.6-0.1 2.1-0.5 4.2-1 6.2-0.5 2.2-0.9 4.4-1.4 6.6-0.7 3.1-1.4 6.1-2.1 9.2-0.6 3-1.2 6-1.9 9q-1 4.4-2 8.9c-1.1 4.9-2 9.8-2.7 14.8 3.8-14.9 7.3-27.5 10.4-38.8 1.2-4.2 2.4-8.7 3.4-12.5z"/>
			</g>
		</g>
	</g>
</svg>