<?xml version="1.0" encoding="utf-8"?>
<!-- Generator: Adobe Illustrator 27.5.0, SVG Export Plug-In . SVG Version: 6.00 Build 0)  -->
<svg version="1.1" xmlns="http://www.w3.org/2000/svg" xmlns:xlink="http://www.w3.org/1999/xlink" x="0px" y="0px"
	 viewBox="0 0 500 500" style="enable-background:new 0 0 500 500;" xml:space="preserve">
<g id="Background_Simple">
	<g>
		<path style="fill:#92E3A9;" d="M471.595,313.962c-15.035,41.195-45.755,85.781-88.984,98.982
			c-65.318,19.952-73.121,73.812-190.112,68.817c-18.241-0.777-35.1-3.401-50.589-7.589c-8.326-2.25-16.258-4.965-23.785-8.094
			C49.779,437.76,14.126,375.432,11.166,310.218C7.26,224.447,65.76,183.564,103.781,159.626
			c38.02-23.938,83.844-116.693,198.893-112.707c17.54,0.616,35.041,3.068,51.999,7.771c38.711,10.718,78.063,34.423,100.931,69.079
			c1.716,2.604,3.354,5.268,4.923,7.983C491.128,184.866,492.095,257.801,471.595,313.962z"/>
		<path style="opacity:0.7;fill:#FFFFFF;" d="M471.595,313.962c-15.035,41.195-45.755,85.781-88.984,98.982
			c-65.318,19.952-73.121,73.812-190.112,68.817c-18.241-0.777-35.1-3.401-50.589-7.589c-8.326-2.25-16.258-4.965-23.785-8.094
			C49.779,437.76,14.126,375.432,11.166,310.218C7.26,224.447,65.76,183.564,103.781,159.626
			c38.02-23.938,83.844-116.693,198.893-112.707c17.54,0.616,35.041,3.068,51.999,7.771c38.711,10.718,78.063,34.423,100.931,69.079
			c1.716,2.604,3.354,5.268,4.923,7.983C491.128,184.866,492.095,257.801,471.595,313.962z"/>
	</g>
</g>
<g id="Buildings">
	<polyline style="fill:none;stroke:#263238;stroke-linecap:round;stroke-linejoin:round;stroke-miterlimit:10;" points="
		488.513,271.367 465.855,271.367 465.855,200.372 440.931,200.372 440.931,241.912 428.847,241.912 428.847,140.706 
		416.762,140.706 416.762,168.651 405.433,168.651 405.433,124.09 386.552,124.09 386.552,227.562 378.244,227.562 378.244,249.464 
		368.425,249.464 368.425,171.672 348.788,171.672 348.788,232.848 341.236,232.848 341.236,100.677 307.249,100.677 
		307.249,258.527 243.051,258.527 243.051,155.056 230.967,155.056 230.967,115.782 208.309,115.782 208.309,74.243 165.259,74.243 
		165.259,152.035 147.888,152.035 147.888,235.114 116.922,235.114 116.922,166.566 86.794,166.566 86.794,243.422 64.053,243.422 
		64.053,198.106 37.619,198.106 37.619,273.633 	"/>
</g>
<g id="Clouds">
	<g>
		<path style="fill:none;stroke:#263238;stroke-linecap:round;stroke-linejoin:round;stroke-miterlimit:10;" d="M359.604,56.54
			c-2.183-0.622-4.417-0.825-6.651-0.013c-8.936,3.249-5.686,8.935-11.372,11.372c-5.686,2.437-18.683-10.56-23.557-6.498
			c-4.874,4.061-6.499,10.56-9.748,12.185c-3.249,1.625-9.748-4.062-12.997,0c-3.249,4.062-3.249,4.062-3.249,4.062h95.952"/>
		<path style="fill:none;stroke:#263238;stroke-linecap:round;stroke-linejoin:round;stroke-miterlimit:10;" d="M393.546,77.648
			h57.698c0,0,2.437-8.936-4.062-12.997c-6.499-4.062-8.123,0.812-15.434-0.812c0,0-19.495-30.056-34.93-28.431
			c-15.434,1.625-14.622,12.997-20.308,21.932c-3.147,4.945-7.289,3.173-11.875,1.154"/>
	</g>
	<g>
		<path style="fill:none;stroke:#263238;stroke-linecap:round;stroke-linejoin:round;stroke-miterlimit:10;" d="M436.79,99.671
			c-1.198-0.341-2.423-0.453-3.649-0.007c-4.902,1.783-3.12,4.902-6.239,6.239c-3.119,1.337-10.249-5.793-12.923-3.565
			c-2.674,2.228-3.565,5.793-5.348,6.684s-5.348-2.228-7.13,0c-1.783,2.228-1.783,2.228-1.783,2.228h52.639"/>
		<path style="fill:none;stroke:#263238;stroke-linecap:round;stroke-linejoin:round;stroke-miterlimit:10;" d="M455.41,111.251
			h31.653c0,0,1.337-4.902-2.228-7.13c-3.565-2.228-4.456,0.446-8.467-0.446c0,0-10.695-16.488-19.162-15.597
			c-8.467,0.891-8.021,7.13-11.141,12.032c-1.726,2.713-3.999,1.741-6.515,0.633"/>
	</g>
	<g>
		<path style="fill:none;stroke:#263238;stroke-linecap:round;stroke-linejoin:round;stroke-miterlimit:10;" d="M158.097,46.047
			c-1.198-0.341-2.423-0.453-3.649-0.007c-4.902,1.783-3.119,4.902-6.239,6.239c-3.119,1.337-10.25-5.793-12.923-3.565
			c-2.674,2.228-3.565,5.793-5.348,6.684c-1.782,0.891-5.348-2.228-7.13,0c-1.782,2.228-1.782,2.228-1.782,2.228h52.639"/>
		<path style="fill:none;stroke:#263238;stroke-linecap:round;stroke-linejoin:round;stroke-miterlimit:10;" d="M176.717,57.627
			h31.653c0,0,1.337-4.902-2.228-7.13c-3.565-2.228-4.456,0.446-8.467-0.446c0,0-10.695-16.488-19.162-15.597
			c-8.467,0.891-8.021,7.13-11.141,12.032c-1.726,2.713-3.999,1.74-6.515,0.633"/>
	</g>
</g>
<g id="Tree">
	<g>
		<path style="fill:#92E3A9;" d="M138.069,249.515c0,48.704-28.811,88.185-64.351,88.185c-35.54,0-64.351-39.482-64.351-88.185
			c0-48.703,28.811-216.094,64.351-216.094C109.258,33.421,138.069,200.811,138.069,249.515z"/>
		<path style="opacity:0.5;fill:#FFFFFF;" d="M138.069,249.515c0,48.704-28.811,88.185-64.351,88.185
			c-35.54,0-64.351-39.482-64.351-88.185c0-48.703,28.811-216.094,64.351-216.094C109.258,33.421,138.069,200.811,138.069,249.515z"
			/>
		<polygon style="fill:#7D7D7D;" points="109.801,274.995 90.315,282.202 94.225,270.473 84.909,284.202 75.608,287.642 
			74.944,249.124 108.796,204.15 90.654,222.292 93.722,209.677 85.044,227.902 74.755,238.19 73.718,178.013 70.03,265.779 
			37.951,231.785 55.572,255.738 38.956,253.892 59.481,261.052 69.648,274.873 67.87,317.19 56.039,309.161 67.502,325.947 
			62.068,455.28 78.498,455.28 75.714,293.786 		"/>
		<g>
			<path style="fill:#FFFFFF;" d="M109.12,178.203c0,0,0.595,5.912-2.637,10.252c-3.232,4.34-9.066,5.465-9.066,5.465
				s-0.595-5.912,2.636-10.252C103.285,179.328,109.12,178.203,109.12,178.203z"/>
			<path style="fill:#FFFFFF;" d="M128.515,205.454c0,0,0.595,5.912-2.637,10.253c-3.232,4.34-9.066,5.465-9.066,5.465
				s-0.595-5.912,2.636-10.252C122.681,206.579,128.515,205.454,128.515,205.454z"/>
			<path style="fill:#FFFFFF;" d="M128.507,258.511c0,0-1.43,5.767-5.934,8.766c-4.504,2.999-10.376,2.094-10.376,2.094
				s1.43-5.768,5.934-8.767C122.634,257.606,128.507,258.511,128.507,258.511z"/>
			<path style="fill:#FFFFFF;" d="M21.988,258.511c0,0,1.43,5.767,5.934,8.766c4.504,2.999,10.377,2.094,10.377,2.094
				s-1.43-5.768-5.934-8.767C27.861,257.606,21.988,258.511,21.988,258.511z"/>
			<path style="fill:#FFFFFF;" d="M106.105,236.487c0,0,0.595,5.912-2.637,10.252c-3.231,4.34-9.066,5.465-9.066,5.465
				s-0.595-5.912,2.636-10.252C100.271,237.612,106.105,236.487,106.105,236.487z"/>
			<path style="fill:#FFFFFF;" d="M101.081,148.559c0,0,0.595,5.912-2.636,10.252c-3.232,4.34-9.066,5.465-9.066,5.465
				s-0.595-5.912,2.636-10.252C95.246,149.684,101.081,148.559,101.081,148.559z"/>
			<path style="fill:#FFFFFF;" d="M89.525,171.169c0,0,0.595,5.912-2.636,10.252c-3.232,4.34-9.066,5.465-9.066,5.465
				s-0.595-5.912,2.636-10.252C83.69,172.294,89.525,171.169,89.525,171.169z"/>
			<path style="fill:#FFFFFF;" d="M116.959,154.707c0,0,0.595,5.912-2.636,10.252c-3.232,4.34-9.066,5.465-9.066,5.465
				s-0.595-5.912,2.636-10.252C111.125,155.831,116.959,154.707,116.959,154.707z"/>
			<path style="fill:#FFFFFF;" d="M27.81,154.707c0,0-0.595,5.912,2.636,10.252c3.232,4.34,9.066,5.465,9.066,5.465
				s0.595-5.912-2.636-10.252C33.644,155.831,27.81,154.707,27.81,154.707z"/>
			<path style="fill:#FFFFFF;" d="M103.593,120.924c0,0,0.595,5.912-2.636,10.252c-3.232,4.34-9.066,5.465-9.066,5.465
				s-0.595-5.912,2.637-10.252C97.759,122.049,103.593,120.924,103.593,120.924z"/>
			<path style="fill:#FFFFFF;" d="M97.914,91.569c0,0,2.061,5.573,0.024,10.586c-2.037,5.013-7.402,7.567-7.402,7.567
				s-2.061-5.573-0.024-10.586C92.549,94.124,97.914,91.569,97.914,91.569z"/>
			<path style="fill:#FFFFFF;" d="M57.22,83.899c0,0,5.264,2.757,7.108,7.844c1.845,5.087-0.427,10.577-0.427,10.577
				s-5.264-2.757-7.109-7.844C54.948,89.389,57.22,83.899,57.22,83.899z"/>
			<path style="fill:#FFFFFF;" d="M76.197,119.001c0,0,3.75,4.61,3.439,10.012c-0.311,5.402-4.564,9.551-4.564,9.551
				s-3.75-4.61-3.439-10.012C71.943,123.151,76.197,119.001,76.197,119.001z"/>
			<path style="fill:#FFFFFF;" d="M75.192,66.747c0,0,3.749,4.609,3.439,10.012c-0.311,5.402-4.564,9.551-4.564,9.551
				s-3.749-4.609-3.439-10.012C70.938,70.896,75.192,66.747,75.192,66.747z"/>
			<path style="fill:#FFFFFF;" d="M32.602,178.203c0,0-0.595,5.912,2.637,10.252c3.232,4.34,9.066,5.465,9.066,5.465
				s0.595-5.912-2.636-10.252C38.436,179.328,32.602,178.203,32.602,178.203z"/>
			<path style="fill:#FFFFFF;" d="M21.548,210.36c0,0-0.595,5.912,2.636,10.252c3.232,4.34,9.066,5.465,9.066,5.465
				s0.595-5.912-2.636-10.252C27.382,211.485,21.548,210.36,21.548,210.36z"/>
			<path style="fill:#FFFFFF;" d="M50.89,222.035c0,0-0.595,5.912,2.637,10.252c3.231,4.34,9.066,5.465,9.066,5.465
				s0.595-5.912-2.636-10.252C56.725,223.16,50.89,222.035,50.89,222.035z"/>
			<path style="fill:#FFFFFF;" d="M58.912,177.478c0,0-2.263,5.494-0.41,10.578c1.853,5.084,7.121,7.832,7.121,7.832
				s2.263-5.494,0.41-10.578C64.18,180.226,58.912,177.478,58.912,177.478z"/>
			<path style="fill:#FFFFFF;" d="M38.135,296.042c0,0,5.941,0.109,10.002-3.468c4.061-3.577,4.703-9.484,4.703-9.484
				s-5.941-0.108-10.002,3.468C38.778,290.135,38.135,296.042,38.135,296.042z"/>
			<path style="fill:#FFFFFF;" d="M95.144,289.543c0,0,1.614,5.719,6.212,8.572c4.598,2.853,10.438,1.76,10.438,1.76
				s-1.614-5.719-6.212-8.572C100.984,288.45,95.144,289.543,95.144,289.543z"/>
			<path style="fill:#FFFFFF;" d="M44.763,148.559c0,0-0.595,5.912,2.636,10.252c3.232,4.34,9.066,5.465,9.066,5.465
				s0.595-5.912-2.636-10.252C50.597,149.684,44.763,148.559,44.763,148.559z"/>
			<path style="fill:#FFFFFF;" d="M44.66,122.432c0,0-0.595,5.912,2.637,10.252c3.232,4.34,9.066,5.465,9.066,5.465
				s0.595-5.912-2.636-10.252C50.495,123.556,44.66,122.432,44.66,122.432z"/>
		</g>
	</g>
</g>
<g id="Car">
	<g>
		<path style="fill:#263238;stroke:#263238;stroke-linecap:round;stroke-linejoin:round;stroke-miterlimit:10;" d="M34.239,418.179
			h66.491c0,0-2.795-32.877-21.432-46.854c-18.636-13.977-41.465-9.784-47.056-0.466c-5.591,9.318-6.523,29.352-5.125,31.681
			C28.515,404.87,34.239,418.179,34.239,418.179z"/>
		<path style="fill:#263238;stroke:#263238;stroke-linecap:round;stroke-linejoin:round;stroke-miterlimit:10;" d="M236.308,429.562
			h52.181l31.681-17.238c0,0-8.386-36.34-29.352-47.056c-20.966-10.716-38.347-7.077-47.827,11.137
			C233.513,394.62,236.308,429.562,236.308,429.562z"/>
		<path style="fill:#263238;stroke:#263238;stroke-linecap:round;stroke-linejoin:round;stroke-miterlimit:10;" d="M190.343,395.662
			h-11.974l-0.017,0.031c-12.525,0.645-22.524,13.727-22.524,29.778c0,16.051,9.999,29.133,22.524,29.778l5.135,0.031h6.856
			c11.628,0,21.053-13.346,21.053-29.809C211.397,409.008,201.971,395.662,190.343,395.662z"/>
		<path style="fill:#263238;stroke:#263238;stroke-linecap:round;stroke-linejoin:round;stroke-miterlimit:10;" d="M396.948,381.077
			h-14.903l-0.022,0.039c-15.589,0.803-28.034,17.085-28.034,37.063s12.445,36.26,28.034,37.063l0.022,0.039h14.903
			c14.472,0,26.204-16.611,26.204-37.102S411.42,381.077,396.948,381.077z"/>
		<g>
			<path style="fill:#263238;stroke:#263238;stroke-linecap:round;stroke-linejoin:round;stroke-miterlimit:10;" d="
				M292.561,381.077H273.65v7.171c-6.501,6.752-10.724,17.641-10.724,29.931c0,12.29,4.223,23.179,10.724,29.931v7.171h18.911
				c14.472,0,26.204-16.611,26.204-37.102S307.033,381.077,292.561,381.077z"/>
		</g>
		<path style="fill:#263238;stroke:#263238;stroke-linecap:round;stroke-linejoin:round;stroke-miterlimit:10;" d="M73.684,381.077
			H59.036v7.171c-6.152,6.752-10.148,17.641-10.148,29.931c0,12.29,3.997,23.179,10.148,29.931v7.171h14.648
			c13.695,0,24.797-16.611,24.797-37.102S87.379,381.077,73.684,381.077z"/>
		<path style="fill:#FFFFFF;stroke:#263238;stroke-linecap:round;stroke-linejoin:round;stroke-miterlimit:10;" d="M439.73,411.53
			l-1.079-12.23l1.439-6.115l0.36-7.913l-7.194-11.87c0,0-0.36-15.467-1.079-17.265c-0.719-1.799-10.791-9.712-20.862-12.949
			c-10.072-3.237-71.58-10.791-71.58-10.791s-34.531-27.697-46.401-33.452c-11.87-5.755-15.827-6.474-28.416-10.072
			c-12.589-3.597-38.488-3.597-38.488-3.597l-37.049-2.158c0,0-45.322-1.798-70.141,0.719c-24.819,2.518-37.409,6.475-38.847,7.194
			c-1.439,0.719-4.316,2.158-4.316,2.158s-15.827,3.597-17.985,5.755c-2.158,2.158-4.316,5.396,0.719,10.791L30.751,340.31
			c0,0-5.036,0.36-4.676,3.597c0.36,3.237,0.36,27.697,0.36,27.697l-2.878,3.957c0,0-2.158,19.064-1.079,22.301
			c1.079,3.237,5.036,11.51,6.475,14.028c1.439,2.518,4.676,4.676,4.676,4.676s0.197,0.107,0.55,0.294
			c-1.597-5.169-4.715-15.693-4.715-19.046c0-4.507,2.254-18.592,12.395-23.099c10.141-4.507,21.972-4.225,31.55,3.38
			c9.578,7.606,12.958,23.099,16.057,32.677c3.099,9.578,6.761,16.057,10.986,18.874c0.928,0.619,1.797,1.194,2.596,1.719
			c2.254-0.016,3.599-0.051,3.599-0.051l139.923,3.237v-6.115c0,0-5.755-2.158-6.834-3.237c-1.079-1.079-5.036-15.467-1.439-28.776
			c3.597-13.309,14.748-26.618,29.136-27.697c14.388-1.079,30.934,7.554,36.689,21.582c5.755,14.028,7.914,35.251,8.633,36.689
			c0.719,1.439,2.518,2.518,6.475,3.597c3.957,1.079,3.957,1.079,3.957,1.079l7.194,3.237l94.601-5.036
			c0,0,14.388-6.115,16.186-9.352C442.967,417.285,439.73,411.53,439.73,411.53z"/>
		<path style="fill:#263238;stroke:#263238;stroke-linecap:round;stroke-linejoin:round;stroke-miterlimit:10;" d="M339.733,332.396
			c0,0-34.531-27.697-46.401-33.452c-11.87-5.755-15.827-6.474-28.416-10.072c-12.589-3.597-38.488-3.597-38.488-3.597
			l-37.049-2.158c0,0-45.322-1.798-70.141,0.719c-24.819,2.518-37.409,6.475-38.847,7.194c-1.439,0.719-4.316,2.158-4.316,2.158
			s-15.827,3.597-17.985,5.755c-2.158,2.158-4.316,5.396,0.719,10.791h17.985l24.46,21.222l130.571,4.676l0.36-3.957
			c0,0,101.076-0.36,103.593-0.36C338.295,331.317,339.733,332.396,339.733,332.396z"/>
		<path style="fill:#C4C4C4;stroke:#263238;stroke-linecap:round;stroke-linejoin:round;stroke-miterlimit:10;" d="M339.733,332.396
			c0,0-34.531-27.697-46.401-33.452c-3.987-1.933-7.075-3.292-9.904-4.388c-5.815-1.097-11.678-1.727-11.678-1.727l-75.537-5.755
			c0,0,11.87,8.273,22.661,19.064c9.295,9.295,19.73,22.514,22.647,25.505c25.089-0.089,92.209-0.326,94.255-0.326
			C338.295,331.317,339.733,332.396,339.733,332.396z"/>
		<g>
			<path style="fill:#8C8C8C;stroke:#263238;stroke-linecap:round;stroke-linejoin:round;stroke-miterlimit:10;" d="
				M104.089,331.059l34.72,1.243c0.783-5.971,2.386-17.065,4.17-22.927c2.518-8.273,6.834-17.266,6.834-17.266l-37.768,2.158
				C112.044,294.268,106.011,316.178,104.089,331.059z"/>
			<path style="fill:#C4C4C4;stroke:#263238;stroke-linecap:round;stroke-linejoin:round;stroke-miterlimit:10;" d="
				M101.253,330.957c0,0,5.628-30.337,8.445-35.782c0,0-15.398,1.127-19.341,3.568c-2.945,1.823-9.45,8.568-12.556,11.866
				L101.253,330.957z"/>
			<path style="fill:#C4C4C4;stroke:#263238;stroke-linecap:round;stroke-linejoin:round;stroke-miterlimit:10;" d="
				M227.867,333.116c0,0-19.783-25.539-30.934-32.373c-11.151-6.834-31.654-7.914-33.812-8.273c-2.158-0.36-2.158-0.36-2.158-0.36
				s-9.867,15.152-7.573,40.715l75.716,2.712L227.867,333.116z"/>
		</g>
		<path style="fill:none;stroke:#263238;stroke-linecap:round;stroke-linejoin:round;stroke-miterlimit:10;" d="M210.961,333.116
			c0,0,4.316-5.036,2.878-9.352c-1.439-4.316-4.676-4.676-6.834-5.036c-2.158-0.36-13.309-1.439-17.625,1.079
			c-4.316,2.518-5.755,10.431-3.597,11.87c2.158,1.439,13.669,0.719,13.669,0.719s4.676,7.913,6.475,8.273
			c1.798,0.36,5.395,0,6.115-1.798C212.759,337.072,210.961,333.116,210.961,333.116z"/>
		<path style="fill:#263238;stroke:#263238;stroke-linecap:round;stroke-linejoin:round;stroke-miterlimit:10;" d="M210.961,333.116
			c0,0,4.316-5.036,2.878-9.352c-1.439-4.316-4.676-4.676-6.834-5.036c-2.158-0.36-13.309-1.439-17.625,1.079
			c-4.316,2.518-5.755,10.431-3.597,11.87c2.158,1.439,13.669,0.719,13.669,0.719s4.676,7.913,6.475,8.273
			c1.798,0.36,5.395,0,6.115-1.798C212.759,337.072,210.961,333.116,210.961,333.116z"/>
		<path style="fill:none;stroke:#263238;stroke-linecap:round;stroke-linejoin:round;stroke-miterlimit:10;" d="M317.079,382.321
			c0,0,47.889,2.535,52.678,3.662c4.789,1.127,9.578,2.817,9.578,2.817l58.311-1.972"/>
		<path style="fill:none;stroke:#263238;stroke-linecap:round;stroke-linejoin:round;stroke-miterlimit:10;" d="M231.442,340.066
			c0,0-5.352,29.86-3.944,61.128"/>
		<path style="fill:none;stroke:#263238;stroke-linecap:round;stroke-linejoin:round;stroke-miterlimit:10;" d="M230.034,347.108
			l65.917,4.225c0,0,67.607,8.733,70.424,8.451c2.817-0.282,5.916-0.282,5.916-0.282"/>
		<path style="fill:none;stroke:#263238;stroke-linecap:round;stroke-linejoin:round;stroke-miterlimit:10;" d="M430.321,356.686
			c0,0-10.456-1.155-22.818-1.127c-14.184,0.033-30.608,1.258-32.114,1.408c-2.817,0.282-3.944,3.38-3.944,5.634
			c0,2.253,0,11.268,0.845,12.958c0.845,1.69,8.451,8.169,12.676,8.169c4.225,0,39.438,0.282,42.818-1.972
			c3.38-2.254,5.469-8.355,5.469-8.355"/>
		<path style="fill:#92E3A9;stroke:#263238;stroke-linecap:round;stroke-linejoin:round;stroke-miterlimit:10;" d="M302.149,352.742
			c0,0,8.733,10.986,12.958,13.803c4.225,2.817,5.07,3.099,7.324,3.38c2.254,0.282,26.761,1.972,30.142,1.972
			c3.381,0,5.634-0.282,7.043-1.69c1.409-1.409,4.789-10.423,4.789-10.423L302.149,352.742z"/>
		<path style="fill:#263238;stroke:#263238;stroke-linecap:round;stroke-linejoin:round;stroke-miterlimit:10;" d="M328.347,398.378
			c0,0-3.099,8.733-3.099,10.141c0,1.409,3.099,3.38,4.225,3.38c1.127,0,22.254,0.282,23.663-0.282
			c1.409-0.563,9.014-8.733,8.733-9.859c-0.282-1.127-4.507-3.099-4.507-3.099L328.347,398.378z"/>
		<path style="fill:#545454;stroke:#263238;stroke-linecap:round;stroke-linejoin:round;stroke-miterlimit:10;" d="M441.169,420.523
			c1.799-3.237-1.439-8.993-1.439-8.993l-4.338-8.645l-58.875,1.408c0,0-9.014,11.831-10.423,12.395
			c-1.409,0.563-3.662,0.563-3.662,0.563s-34.931-1.408-37.466-2.535c-2.535-1.127-4.507-4.507-5.634-5.352
			c-1.127-0.845-5.352-1.972-5.352-1.972s-3.662-16.902-10.141-25.635c-6.479-8.733-20.846-16.339-30.987-17.465
			c-10.141-1.127-24.226,5.352-29.86,12.113c-5.634,6.761-9.296,16.62-10.141,27.325l-8.451-1.127c0,0-5.916,6.197-9.296,7.606
			c-3.38,1.409-103.101-3.662-105.919-4.507c-2.817-0.845-10.141-7.887-11.831-8.451c-1.69-0.563-8.169-1.408-8.169-1.408
			s-4.225-18.029-14.648-24.789c-10.423-6.761-24.508-6.761-32.677-1.972c-8.169,4.789-11.831,13.521-12.958,16.338
			c-1.127,2.817-1.69,4.507-1.69,4.507l-4.808-1.492c-0.268,4.194-0.363,8.114,0.075,9.427c1.079,3.237,5.036,11.51,6.475,14.028
			c1.439,2.518,4.676,4.676,4.676,4.676s0.197,0.107,0.55,0.294c-1.597-5.169-4.715-15.693-4.715-19.046
			c0-4.507,2.254-18.592,12.395-23.099c10.141-4.507,21.972-4.225,31.55,3.38c9.578,7.606,12.958,23.099,16.057,32.677
			c3.099,9.578,6.761,16.057,10.986,18.874c0.928,0.619,1.797,1.194,2.596,1.719c2.254-0.016,3.599-0.051,3.599-0.051l139.923,3.237
			v-6.115c0,0-5.755-2.158-6.834-3.237c-1.079-1.079-5.036-15.467-1.439-28.776c3.597-13.309,14.748-26.618,29.136-27.697
			c14.388-1.079,30.934,7.554,36.689,21.582c5.755,14.028,7.914,35.251,8.633,36.689c0.719,1.439,2.518,2.518,6.475,3.597
			c3.957,1.079,3.957,1.079,3.957,1.079l7.194,3.237l94.601-5.036C424.982,429.875,439.37,423.76,441.169,420.523z"/>
		<g>
			
				<ellipse style="fill:#787878;stroke:#263238;stroke-linecap:round;stroke-linejoin:round;stroke-miterlimit:10;" cx="59.036" cy="418.179" rx="24.797" ry="37.102"/>
			
				<ellipse style="fill:#FFFFFF;stroke:#263238;stroke-linecap:round;stroke-linejoin:round;stroke-miterlimit:10;" cx="59.036" cy="418.179" rx="19.375" ry="28.989"/>
			
				<ellipse style="fill:#FFFFFF;stroke:#263238;stroke-linecap:round;stroke-linejoin:round;stroke-miterlimit:10;" cx="59.036" cy="418.179" rx="2.43" ry="3.635"/>
		</g>
		<path style="fill:#92E3A9;stroke:#263238;stroke-linecap:round;stroke-linejoin:round;stroke-miterlimit:10;" d="M26.076,343.907
			c0.142,1.275,0.227,5.842,0.279,10.908c1.879-0.199,4.888-0.535,6.404-0.787c2.3-0.383,8.049-10.158,9.199-11.307
			c1.15-1.15,0.192-2.3,0.192-2.3H31.993l-0.734-0.664l-0.507,0.553C30.751,340.31,25.716,340.669,26.076,343.907z"/>
		<path style="fill:none;stroke:#263238;stroke-linecap:round;stroke-linejoin:round;stroke-miterlimit:10;" d="M75.161,312.288
			c0,0-7.952,24.409-8.063,26.839c-0.11,2.43,5.633,29.268,5.633,29.268"/>
		<g>
			<path style="fill:none;stroke:#263238;stroke-linecap:round;stroke-linejoin:round;stroke-miterlimit:10;" d="M81.677,347.41
				c0,0,0.663,1.436,0.552,1.988c-0.11,0.552-4.087-0.663-4.749-1.325c-0.663-0.663-0.773-2.099-0.773-2.099
				s0.221-1.767,0.773-2.098c0.552-0.331,6.406-0.442,6.406-0.442s-0.884,0.442,1.988,0.663c2.872,0.221,5.302-0.442,5.302-0.442
				s4.197,1.104,4.197,1.988c0,0.884-0.442,2.099-0.442,2.099l-4.087,1.436l0.221-0.994
				C91.065,348.183,83.555,346.968,81.677,347.41z"/>
			<path style="fill:none;stroke:#263238;stroke-linecap:round;stroke-linejoin:round;stroke-miterlimit:10;" d="M82.561,350.723
				c0,0,3.534,1.104,6.958,0.442"/>
		</g>
		<g>
			<path style="fill:none;stroke:#263238;stroke-linecap:round;stroke-linejoin:round;stroke-miterlimit:10;" d="M152.591,349.645
				c0,0,0.663,1.436,0.552,1.988c-0.111,0.552-4.087-0.663-4.749-1.325c-0.663-0.663-0.773-2.098-0.773-2.098
				s0.221-1.767,0.773-2.099c0.552-0.331,6.406-0.442,6.406-0.442s-0.884,0.442,1.988,0.663c2.872,0.221,5.301-0.442,5.301-0.442
				s4.197,1.104,4.197,1.988s-0.442,2.099-0.442,2.099l-4.086,1.436l0.221-0.994C161.979,350.418,154.468,349.204,152.591,349.645z"
				/>
			<path style="fill:none;stroke:#263238;stroke-linecap:round;stroke-linejoin:round;stroke-miterlimit:10;" d="M153.474,352.959
				c0,0,3.534,1.105,6.958,0.442"/>
		</g>
		<path style="fill:none;stroke:#263238;stroke-linecap:round;stroke-linejoin:round;stroke-miterlimit:10;" d="M143.867,336.683
			c0,0-4.689,11.834-3.572,24.114c1.116,12.28,5.805,28.803,5.582,32.599c-0.223,3.796-4.019,11.834-3.349,12.95"/>
		
			<ellipse style="fill:#787878;stroke:#263238;stroke-linecap:round;stroke-linejoin:round;stroke-miterlimit:10;" cx="272.283" cy="418.179" rx="29.239" ry="37.102"/>
		
			<ellipse style="fill:#FFFFFF;stroke:#263238;stroke-linecap:round;stroke-linejoin:round;stroke-miterlimit:10;" cx="272.283" cy="418.179" rx="22.846" ry="28.989"/>
		<path style="fill:#FFFFFF;stroke:#263238;stroke-linecap:round;stroke-linejoin:round;stroke-miterlimit:10;" d="M275.306,418.179
			c0,2.008-1.149,3.635-2.567,3.635c-1.418,0-2.567-1.628-2.567-3.635s1.149-3.635,2.567-3.635
			C274.157,414.543,275.306,416.171,275.306,418.179z"/>
		<path style="fill:#FFFFFF;stroke:#263238;stroke-linecap:round;stroke-linejoin:round;stroke-miterlimit:10;" d="M412.574,368.463
			c0,3.605-2.391,6.528-5.341,6.528c-2.95,0-5.341-2.923-5.341-6.528c0-3.605,2.391-6.528,5.341-6.528
			C410.183,361.935,412.574,364.858,412.574,368.463z"/>
		<g>
			<path style="fill:#FFFFFF;stroke:#263238;stroke-linecap:round;stroke-linejoin:round;stroke-miterlimit:10;" d="M285.723,295.48
				c-0.79-0.33-1.552-0.637-2.294-0.925c-1.583-0.299-3.165-0.561-4.636-0.787l19.875,37.674c2.89-0.01,5.712-0.02,8.429-0.029
				L285.723,295.48z"/>
		</g>
	</g>
</g>
<g id="Floor">
	
		<line style="fill:none;stroke:#263238;stroke-linecap:round;stroke-linejoin:round;stroke-miterlimit:10;" x1="13.156" y1="455.28" x2="493.205" y2="455.28"/>
</g>
<g id="Poles">
	<g>
		<path style="fill:#FFFFFF;stroke:#263238;stroke-linecap:round;stroke-linejoin:round;stroke-miterlimit:10;" d="M343.902,453.017
			H327.68V295.14c0-4.479,3.631-8.111,8.111-8.111l0,0c4.479,0,8.111,3.631,8.111,8.111V453.017z"/>
		
			<rect x="327.68" y="299.101" style="fill:#FFFFFF;stroke:#263238;stroke-linecap:round;stroke-linejoin:round;stroke-miterlimit:10;" width="16.222" height="5.659"/>
		
			<rect x="312.779" y="453.017" style="fill:#FFFFFF;stroke:#263238;stroke-linecap:round;stroke-linejoin:round;stroke-miterlimit:10;" width="45.647" height="2.263"/>
	</g>
	<g>
		<path style="fill:#FFFFFF;stroke:#263238;stroke-linecap:round;stroke-linejoin:round;stroke-miterlimit:10;" d="M414.932,453.017
			H398.71V295.14c0-4.479,3.631-8.111,8.111-8.111l0,0c4.479,0,8.111,3.631,8.111,8.111V453.017z"/>
		
			<rect x="398.71" y="299.101" style="fill:#FFFFFF;stroke:#263238;stroke-linecap:round;stroke-linejoin:round;stroke-miterlimit:10;" width="16.222" height="5.659"/>
		
			<rect x="383.81" y="453.017" style="fill:#FFFFFF;stroke:#263238;stroke-linecap:round;stroke-linejoin:round;stroke-miterlimit:10;" width="45.647" height="2.263"/>
	</g>
</g>
<g id="Parking_Meter">
	<g>
		<g>
			
				<rect x="276.612" y="282.618" style="fill:#8C8C8C;stroke:#263238;stroke-linecap:round;stroke-linejoin:round;stroke-miterlimit:10;" width="10.043" height="147.624"/>
			
				<rect x="285.673" y="282.618" style="fill:#263238;stroke:#263238;stroke-linecap:round;stroke-linejoin:round;stroke-miterlimit:10;" width="30.156" height="147.624"/>
			
				<rect x="250.521" y="172.206" style="fill:#8C8C8C;stroke:#263238;stroke-linecap:round;stroke-linejoin:round;stroke-miterlimit:10;" width="31.72" height="114.987"/>
			
				<rect x="282.193" y="172.206" style="fill:#263238;stroke:#263238;stroke-linecap:round;stroke-linejoin:round;stroke-miterlimit:10;" width="39.894" height="114.987"/>
			<path style="fill:#8C8C8C;stroke:#263238;stroke-linecap:round;stroke-linejoin:round;stroke-miterlimit:10;" d="
				M274.809,239.817h-15.195c-2.222,0-4.024-1.802-4.024-4.024v-50.699c0-2.222,1.802-4.024,4.024-4.024h15.195
				c2.223,0,4.024,1.802,4.024,4.024v50.699C278.833,238.015,277.032,239.817,274.809,239.817z"/>
			<g>
				<path style="fill:#FFFFFF;stroke:#263238;stroke-linecap:round;stroke-linejoin:round;stroke-miterlimit:10;" d="
					M273.878,198.183h-4.269c-1.008,0-1.824-0.817-1.824-1.824v-10.91c0-1.008,0.817-1.824,1.824-1.824h4.269
					c1.008,0,1.824,0.817,1.824,1.824v10.91C275.702,197.366,274.885,198.183,273.878,198.183z"/>
				
					<rect x="269.992" y="184.852" style="fill:#263238;stroke:#263238;stroke-linecap:round;stroke-linejoin:round;stroke-miterlimit:10;" width="1.798" height="12.023"/>
				<path style="fill:#263238;stroke:#263238;stroke-linecap:round;stroke-linejoin:round;stroke-miterlimit:10;" d="
					M275.702,196.463v-11.119c0-0.95-0.77-1.72-1.72-1.72v14.559C274.932,198.183,275.702,197.413,275.702,196.463z"/>
			</g>
			<path style="fill:none;stroke:#263238;stroke-linecap:round;stroke-linejoin:round;stroke-miterlimit:10;" d="M261.523,199.863
				h-2.635c-1.094,0-1.981-0.887-1.981-1.981v-12.3c0-1.094,0.887-1.981,1.981-1.981h2.635c1.094,0,1.981,0.887,1.981,1.981v12.3
				C263.504,198.976,262.617,199.863,261.523,199.863z"/>
			
				<rect x="257.488" y="202.561" style="fill:none;stroke:#263238;stroke-linecap:round;stroke-linejoin:round;stroke-miterlimit:10;" width="18.759" height="25.41"/>
		</g>
		<polygon style="fill:#8C8C8C;stroke:#263238;stroke-linecap:round;stroke-linejoin:round;stroke-miterlimit:10;" points="
			310.354,172.206 272.154,172.206 272.154,136.564 310.354,132.471 		"/>
		<polygon style="fill:#263238;stroke:#263238;stroke-linecap:round;stroke-linejoin:round;stroke-miterlimit:10;" points="
			282.898,172.206 310.354,172.206 310.354,132.471 282.898,135.413 		"/>
		<g>
			<path style="fill:#8C8C8C;stroke:#263238;stroke-linecap:round;stroke-linejoin:round;stroke-miterlimit:10;" d="
				M293.051,112.348c-0.193-0.032-0.396-0.033-0.604,0c0,0-34.107,8.015-53.036,19.953c0,0-0.341,1.876,0.512,3.07
				c0.853,1.194,10.232,3.581,10.232,3.581h33.084l42.292-26.603H293.051z"/>
			<path style="fill:#263238;stroke:#263238;stroke-linecap:round;stroke-linejoin:round;stroke-miterlimit:10;" d="
				M249.819,128.729h26.54c0,0,14.888-9.17,38.192-14.78h-22.225C292.326,113.949,259.637,123.443,249.819,128.729z"/>
			<path style="fill:#8C8C8C;stroke:#263238;stroke-linecap:round;stroke-linejoin:round;stroke-miterlimit:10;" d="M239.923,135.37
				c0.853,1.194,10.232,3.581,10.232,3.581h33.084l-10.744-6.651h-33.084C239.411,132.301,239.07,134.176,239.923,135.37z"/>
			<path style="fill:#263238;stroke:#263238;stroke-linecap:round;stroke-linejoin:round;stroke-miterlimit:10;" d="
				M325.531,112.348c0,0-34.107,8.015-53.036,19.953c0,0-0.341,1.876,0.512,3.07c0.853,1.194,10.232,3.581,10.232,3.581
				s21.829-2.558,34.619-11.085C330.647,119.34,328.771,111.836,325.531,112.348z"/>
		</g>
		
			<ellipse style="fill:#92E3A9;stroke:#263238;stroke-linecap:round;stroke-linejoin:round;stroke-miterlimit:10;" cx="297.839" cy="155.725" rx="11.429" ry="13.638"/>
		<g>
			<path style="fill:#263238;" d="M293.276,165.288v-19.054h6.398c1.145,0,2.086,0.216,2.823,0.647
				c0.737,0.432,1.286,1.059,1.647,1.882c0.36,0.824,0.541,1.823,0.541,3c0,1.474-0.243,2.599-0.729,3.375
				c-0.486,0.776-1.145,1.314-1.976,1.612c-0.832,0.298-1.765,0.447-2.8,0.447h-1.693v8.092H293.276z M297.487,154.256h1.411
				c0.518,0,0.909-0.094,1.176-0.282c0.266-0.189,0.443-0.471,0.529-0.847c0.086-0.376,0.129-0.855,0.129-1.435
				c0-0.486-0.035-0.913-0.105-1.282c-0.071-0.368-0.239-0.662-0.506-0.882c-0.267-0.219-0.682-0.329-1.246-0.329h-1.388V154.256z"
				/>
		</g>
		
			<ellipse style="fill:#92E3A9;stroke:#263238;stroke-linecap:round;stroke-linejoin:round;stroke-miterlimit:10;" cx="301.844" cy="209.342" rx="18.285" ry="21.819"/>
		<g>
			<path style="fill:#263238;" d="M290.416,209.808v-15.291h5.134c0.919,0,1.674,0.174,2.265,0.519
				c0.591,0.346,1.032,0.85,1.322,1.51c0.289,0.661,0.434,1.463,0.434,2.407c0,1.183-0.195,2.085-0.585,2.708
				c-0.39,0.623-0.919,1.055-1.585,1.294c-0.668,0.239-1.416,0.359-2.247,0.359h-1.359v6.493H290.416z M293.795,200.955h1.132
				c0.416,0,0.73-0.075,0.944-0.227c0.213-0.151,0.356-0.378,0.425-0.68c0.069-0.302,0.104-0.686,0.104-1.151
				c0-0.39-0.028-0.733-0.084-1.029c-0.057-0.296-0.192-0.532-0.406-0.708c-0.214-0.176-0.548-0.264-1-0.264h-1.114V200.955z"/>
		</g>
		<line style="fill:none;stroke:#263238;stroke-miterlimit:10;" x1="301.049" y1="198.928" x2="312.352" y2="198.928"/>
		<line style="fill:none;stroke:#263238;stroke-miterlimit:10;" x1="295.145" y1="205.845" x2="316.739" y2="205.845"/>
		<line style="fill:none;stroke:#263238;stroke-miterlimit:10;" x1="295.145" y1="209.557" x2="316.401" y2="209.557"/>
		<line style="fill:none;stroke:#263238;stroke-miterlimit:10;" x1="288.059" y1="215.63" x2="315.726" y2="215.63"/>
		<line style="fill:none;stroke:#263238;stroke-miterlimit:10;" x1="289.24" y1="220.016" x2="313.871" y2="220.016"/>
		<line style="fill:none;stroke:#263238;stroke-miterlimit:10;" x1="292.108" y1="223.053" x2="310.159" y2="223.053"/>
		<g>
			
				<rect x="262.735" y="429.035" style="fill:#8C8C8C;stroke:#263238;stroke-linecap:round;stroke-linejoin:round;stroke-miterlimit:10;" width="68.48" height="26.245"/>
			
				<rect x="289.991" y="429.035" style="fill:#263238;stroke:#263238;stroke-linecap:round;stroke-linejoin:round;stroke-miterlimit:10;" width="41.223" height="26.245"/>
		</g>
	</g>
</g>
<g id="Character">
	<g>
		<g>
			<path style="fill:#FFFFFF;stroke:#263238;stroke-linecap:round;stroke-linejoin:round;stroke-miterlimit:10;" d="
				M168.107,136.703c0,0-4.885,3.42-5.211,9.282c-0.326,5.863,3.094,16.61,3.094,17.588c0,0.977-2.117,10.422-2.117,10.422
				l19.053,11.237l4.885-10.422c0,0,7.328-0.326,7.98-1.466c0.651-1.14,2.768-11.236,2.768-11.236l3.257-0.814l-3.908-7.98
				c0,0,0.489-3.257,0.489-3.746c0-0.488-2.117-7.165-2.606-8.468c-0.489-1.303-3.094-7.002-13.516-7.654
				C171.853,132.795,168.107,136.703,168.107,136.703z"/>
			<path style="fill:#263238;stroke:#263238;stroke-linecap:round;stroke-linejoin:round;stroke-miterlimit:10;" d="
				M182.275,133.446c-10.422-0.651-14.168,3.257-14.168,3.257s-4.885,3.42-5.211,9.282c-0.285,5.136,2.304,14.021,2.95,16.801
				c1.423,0.939,3.399,2.057,4.378,1.763c1.629-0.489-0.326-4.234,1.14-7.654c1.466-3.42,6.351-4.071,7.654-3.908
				c1.303,0.163,2.28,2.931,2.28,2.931l2.117-0.163l-0.163-4.397c0,0,3.257-2.443,4.071-3.908c0.814-1.466-2.28-6.677-2.28-6.677
				l10.242-0.753C194.108,137.906,190.822,133.98,182.275,133.446z"/>
			<path style="fill:#FFFFFF;stroke:#263238;stroke-linecap:round;stroke-linejoin:round;stroke-miterlimit:10;" d="
				M178.538,155.847c0,0-1.457-4.554-4.372-3.279s-2.55,6.193-1.822,8.015c0.729,1.822,4.007,2.915,5.1,2.004"/>
			<path style="fill:none;stroke:#263238;stroke-linecap:round;stroke-linejoin:round;stroke-miterlimit:10;" d="M196.443,152.336
				c0,0-1.954-0.814-3.908,0.651"/>
			<path style="fill:#263238;" d="M195.628,154.779c0,0.809-0.401,1.466-0.896,1.466c-0.495,0-0.896-0.656-0.896-1.466
				c0-0.81,0.401-1.466,0.896-1.466C195.227,153.314,195.628,153.97,195.628,154.779z"/>
			<path style="fill:none;stroke:#263238;stroke-linecap:round;stroke-linejoin:round;stroke-miterlimit:10;" d="M196.28,166.504
				c0,0-2.117,0.163-3.094-1.14"/>
			
				<line style="fill:none;stroke:#263238;stroke-linecap:round;stroke-linejoin:round;stroke-miterlimit:10;" x1="196.443" y1="156.245" x2="194.814" y2="157.385"/>
			<path style="fill:#263238;stroke:#263238;stroke-linecap:round;stroke-linejoin:round;stroke-miterlimit:10;" d="
				M187.812,174.809c0,0-2.931-0.977-4.234-2.117c-1.303-1.14-1.954-1.791-1.954-1.791l4.723,7.328L187.812,174.809z"/>
		</g>
		<g>
			<path style="fill:#263238;stroke:#263238;stroke-linecap:round;stroke-linejoin:round;stroke-miterlimit:10;" d="
				M196.508,297.655c0,0,1.682,33.642,0.421,46.678c-1.262,13.036-2.523,21.657-3.574,23.759s-8.2,11.774-8.2,11.774
				s-5.257,26.493-4.626,30.278c0.631,3.785-0.21,7.78-1.262,10.303s-2.944,16.108-2.944,16.739c0,0.631,13.457,9.041,16.19,9.882
				c2.733,0.841,5.046,0.421,6.098,3.154s0.421,4.836-2.103,4.836c-2.523,0-26.913-1.682-30.488-2.313s-6.728-1.472-6.728-1.472
				s3.995-58.791,3.995-62.996s6.308-67.283,6.308-71.699c0-4.415-1.051-18.082-1.051-18.082L196.508,297.655z"/>
			<path style="fill:#263238;stroke:#263238;stroke-linecap:round;stroke-linejoin:round;stroke-miterlimit:10;" d="
				M152.774,297.235c0,0-0.631,10.723,2.523,16.821c3.154,6.098,4.836,10.513,4.836,10.513s-1.682,27.965-4.836,44.996
				c-3.154,17.031-4.415,42.683-5.046,51.093s-0.21,23.196-0.21,23.196s-1.682,9.462-1.051,10.092
				c0.631,0.631,16.611,0.774,23.759,1.195c7.149,0.421,20.395,0,21.657-2.733c1.262-2.733,0.841-4.836-1.051-5.677
				c-1.892-0.841-13.877-5.887-14.928-6.728c-1.051-0.841-2.944-3.785-2.944-3.785s-0.841-8.2-0.841-10.092s0-10.092,0-12.405
				c0-2.313-1.051-5.257-0.631-7.99c0.421-2.733,4.205-25.441,5.467-28.385c1.262-2.944,3.785-14.298,4.836-19.134
				c1.051-4.836,7.149-26.072,8.621-34.693c1.472-8.621,3.995-24.39,3.995-24.39L152.774,297.235z"/>
			<g>
				<path style="fill:none;stroke:#878787;stroke-linecap:round;stroke-linejoin:round;stroke-miterlimit:10;" d="M158.661,415.612
					c-1.305,14.445-1.262,16.4-1.262,16.4"/>
				<path style="fill:none;stroke:#878787;stroke-linecap:round;stroke-linejoin:round;stroke-miterlimit:10;" d="M175.182,319.943
					c0.011,10.827-0.614,26.157-3.696,37.006c-5.257,18.503-11.354,38.898-12.826,54.668"/>
				<path style="fill:none;stroke:#878787;stroke-linecap:round;stroke-linejoin:round;stroke-miterlimit:10;" d="M174.851,306.907
					c0,0,0.231,3.857,0.308,9.665"/>
			</g>
			<g>
				<path style="fill:#92E3A9;stroke:#263238;stroke-linecap:round;stroke-linejoin:round;stroke-miterlimit:10;" d="
					M194.405,452.407c1.262-2.733,0.841-4.836-1.051-5.677c-1.892-0.841-13.877-5.887-14.928-6.728
					c-1.051-0.841-2.944-3.785-2.944-3.785s-7.149,3.785-13.877,4.836c-6.728,1.051-11.564,2.8-11.564,2.8
					s-1.682,9.462-1.051,10.092c0.631,0.631,13.041,1.462,20.19,1.882C176.328,456.249,193.144,455.14,194.405,452.407z"/>
				<path style="fill:#FFFFFF;stroke:#263238;stroke-linecap:round;stroke-linejoin:round;stroke-miterlimit:10;" d="
					M194.405,452.407c0.71-1.538,0.869-2.864,0.551-3.89c-4.102,0.955-13.106,2.891-19.264,3.049
					c-6.956,0.178-22.077-0.665-26.506-2.222c-0.293,2.212-0.483,4.315-0.197,4.601c0.631,0.631,13.041,1.462,20.19,1.882
					C176.328,456.249,193.144,455.14,194.405,452.407z"/>
			</g>
		</g>
		<path style="fill:#92E3A9;stroke:#263238;stroke-linecap:round;stroke-linejoin:round;stroke-miterlimit:10;" d="M160.749,178.71
			c0,0-10.317,16.622-11.272,23.118c-0.955,6.496-0.764,61.139-0.764,61.139l-0.955,38.403c0,0,59.419,1.911,64.005-0.191
			c4.585-2.102,8.789-5.541,8.024-11.272c-0.764-5.732-5.541-45.854-14.52-67.826c-8.98-21.972-18.533-28.85-18.533-28.85
			S171.64,183.104,160.749,178.71z"/>
		<path style="fill:none;stroke:#263238;stroke-linecap:round;stroke-linejoin:round;stroke-miterlimit:10;" d="M209.567,262.426
			l-29.019,3.414c0,0,0.854,6.999,2.219,7.511c1.366,0.512,14.51,3.414,15.193,3.243c0.683-0.171,13.144-5.462,13.485-6.999
			c0.341-1.536,0.341-4.95,0.341-4.95"/>
		<path style="fill:#92E3A9;stroke:#263238;stroke-linecap:round;stroke-linejoin:round;stroke-miterlimit:10;" d="M162.082,172.53
			c0,0-3.745,6.351-2.931,6.677c0.814,0.326,17.913,7.98,19.868,9.282c1.954,1.303,13.354,10.259,13.354,10.259
			s-7.654-14.005-9.445-15.633C181.135,181.486,162.082,172.53,162.082,172.53z"/>
		<g>
			<path style="fill:#FFFFFF;stroke:#263238;stroke-linecap:round;stroke-linejoin:round;stroke-miterlimit:10;" d="
				M264.894,238.729l7.311-0.936c0,0-4.491-1.684-6.736-1.965c-2.245-0.281-8.421,0.561-8.421,0.561l3.789,2.386L264.894,238.729z"
				/>
			<path style="fill:#FFFFFF;stroke:#263238;stroke-linecap:round;stroke-linejoin:round;stroke-miterlimit:10;" d="
				M264.894,238.729c0-0.574-2.68-0.096-2.68-0.096l-0.091,0.129c-1.568-1.386-3.929-3.001-3.929-3.001s2.68,0.096,2.872-0.574
				c0.191-0.67-1.914-0.574-2.202-0.766c-0.287-0.191-5.073-2.106-5.36-2.297c-0.287-0.191-4.116-1.053-5.169-0.766
				c-1.053,0.287-10.816,2.68-10.816,2.68l4.403,11.008c0,0,3.159,0.479,8.615-0.191c5.456-0.67,7.466-3.542,7.753-3.637
				c0.287-0.096,1.627,0,2.106,0c0,0,0.042,0.002,0.103,0.003c0.605,0.016,2.506,0.144,2.96-0.673
				C265.086,239.782,264.894,239.303,264.894,238.729z"/>
			<path style="fill:none;stroke:#263238;stroke-linecap:round;stroke-linejoin:round;stroke-miterlimit:10;" d="M258.194,235.762
				c0,0-3.542-1.914-4.403-2.297c-0.861-0.383-3.063-0.861-3.063-0.861"/>
			
				<line style="fill:none;stroke:#263238;stroke-linecap:round;stroke-linejoin:round;stroke-miterlimit:10;" x1="255.514" y1="240.356" x2="258.96" y2="241.026"/>
		</g>
		<path style="fill:#92E3A9;stroke:#263238;stroke-linecap:round;stroke-linejoin:round;stroke-miterlimit:10;" d="M161.896,221.698
			c0,0,23.5,28.468,27.895,31.333c4.394,2.866,7.642,3.248,7.642,3.248l37.065-4.012c0,0,3.439,1.911,4.585,1.337
			c1.146-0.573,4.203-3.248,3.439-9.744c-0.764-6.496-3.821-11.272-5.923-11.081c-2.102,0.191-5.732,1.337-6.305,1.528
			c-0.573,0.191-8.598,0.764-8.598,0.764s-10.126-0.191-11.846,0c-1.719,0.191-6.305-1.338-7.833-3.057s-5.732-4.967-5.732-4.967
			s-9.553-30.76-13.565-33.435c-4.012-2.675-14.138-7.833-18.915,0.764"/>
		<path style="fill:none;stroke:#263238;stroke-linecap:round;stroke-linejoin:round;stroke-miterlimit:10;" d="M231.64,236.163
			c0,0,4.254,1.702,2.269,13.614"/>
	</g>
</g>
</svg>
