<?xml version="1.0" encoding="utf-8"?>
<!-- Generator: Adobe Illustrator 27.5.0, SVG Export Plug-In . SVG Version: 6.00 Build 0)  -->
<svg version="1.1" xmlns="http://www.w3.org/2000/svg" xmlns:xlink="http://www.w3.org/1999/xlink" x="0px" y="0px"
	 viewBox="0 0 500 500" style="enable-background:new 0 0 500 500;" xml:space="preserve">
<g id="BACKGROUND">
	<rect x="0" style="fill:#FFFFFF;" width="500" height="500"/>
</g>
<g id="OBJECTS">
	<g>
		<path style="fill:none;stroke:#163161;stroke-width:10;stroke-miterlimit:10;" d="M296.488,195.824v52.849
			c0,29.308-23.857,53.045-53.211,52.848c-29.162-0.195-52.488-24.388-52.488-53.551v-52.147"/>
		<g>
			<g>
				<g>
					<path style="fill:#163161;" d="M285.659,179.781l-8.391-0.055l0.326-49.77c0.015-2.317,1.906-4.183,4.223-4.168h0
						c2.317,0.015,4.183,1.906,4.168,4.223L285.659,179.781z"/>
					<path style="fill:#163161;" d="M308.159,180.001l8.391,0.055l0.326-49.77c0.015-2.317-1.851-4.208-4.168-4.223h0
						c-2.317-0.015-4.208,1.851-4.223,4.168L308.159,180.001z"/>
				</g>
				<path style="fill:#163161;" d="M306.966,216.419l-20.745-0.136c-9.451-0.062-17.061-7.773-17-17.224l0.077-14.906l54.969,0.18
					l-0.078,15.086C324.128,208.87,316.416,216.481,306.966,216.419z"/>
				<path style="fill:#163161;" d="M296.441,236.002L296.441,236.002c-5.692-0.037-10.276-4.682-10.239-10.374l0.108-16.429
					l20.613,0.067l-0.108,16.496C306.778,231.455,302.134,236.04,296.441,236.002z"/>
				<path style="fill:#163161;" d="M324.924,198.899l-56.378-0.369c-3.491-0.023-6.302-2.871-6.279-6.362v0
					c0.023-3.491,2.871-6.302,6.362-6.279l56.378,0.369c3.491,0.023,6.302,2.871,6.279,6.362v0
					C331.263,196.111,328.415,198.922,324.924,198.899z"/>
				<path style="fill:#163161;" d="M327.404,192.587l-61.166-0.401l0.252-38.475c0.014-2.153,1.771-3.887,3.924-3.873l53.37,0.35
					c2.153,0.014,3.887,1.771,3.873,3.924L327.404,192.587z"/>
			</g>
		</g>
	</g>
	<g>
		<g>
			<path style="fill:#49B97A;" d="M185.099,238.742c0,0-30.157-30.543-8.648-64.296S190.588,125,190.588,125
				s31.037,21.225,32.104,57.423C223.795,219.795,185.099,238.742,185.099,238.742z"/>
			<path style="fill:#163161;" d="M222.693,182.423c1.102,37.372-37.593,56.32-37.593,56.32s-10.546-15.429,6.843-53.555
				C209.33,147.063,190.588,125,190.588,125S221.625,146.225,222.693,182.423z"/>
		</g>
		<path style="fill:#FFFFFF;" d="M191.347,125.885c13.269,15.74,12.097,39.318,4.438,57.411
			c-5.833,13.603-11.74,27.098-12.176,41.971c-0.185,4.841,0.208,9.834,2.249,14.361c-2.793-4.183-3.614-9.364-4.017-14.332
			c-0.795-15.117,4.74-29.797,10.608-43.363C199.911,164.25,201.894,142.749,191.347,125.885L191.347,125.885z"/>
	</g>
	<g>
		<polygon style="fill:#49B97A;" points="306.438,156.668 298.583,178.161 314.556,178.161 285.643,207.075 295.746,185.532 
			279.362,185.532 		"/>
	</g>
</g>
<g id="TEXTS">
	
		<text transform="matrix(1 0 0 1 124.999 354.7031)" style="fill:#163161; font-family:'OpenSans-Extrabold'; font-size:37.5285px;">FRIENDLY.CO</text>
	<text transform="matrix(1 0 0 1 181.1104 374.3506)" style="fill:#49B97A; font-family:'OpenSans'; font-size:15.4921px;">ENERGY COMPANY</text>
</g>
</svg>
